<svg xmlns="http://www.w3.org/2000/svg" viewBox="0 0 60 40" role="img" aria-label="India">
  <rect width="60" height="40" fill="#FF9933"/>
  <rect y="13.333" width="60" height="13.333" fill="#ffffff"/>
  <rect y="26.667" width="60" height="13.333" fill="#138808"/>
  <g stroke="#000080" stroke-width="0.5">
    <line x1="30.000" y1="20.000" x2="36.000" y2="20.000"/><line x1="30.000" y1="20.000" x2="35.796" y2="21.553"/><line x1="30.000" y1="20.000" x2="35.196" y2="23.000"/><line x1="30.000" y1="20.000" x2="34.243" y2="24.243"/><line x1="30.000" y1="20.000" x2="33.000" y2="25.196"/><line x1="30.000" y1="20.000" x2="31.553" y2="25.796"/><line x1="30.000" y1="20.000" x2="30.000" y2="26.000"/><line x1="30.000" y1="20.000" x2="28.447" y2="25.796"/><line x1="30.000" y1="20.000" x2="27.000" y2="25.196"/><line x1="30.000" y1="20.000" x2="25.757" y2="24.243"/><line x1="30.000" y1="20.000" x2="24.804" y2="23.000"/><line x1="30.000" y1="20.000" x2="24.204" y2="21.553"/><line x1="30.000" y1="20.000" x2="24.000" y2="20.000"/><line x1="30.000" y1="20.000" x2="24.204" y2="18.447"/><line x1="30.000" y1="20.000" x2="24.804" y2="17.000"/><line x1="30.000" y1="20.000" x2="25.757" y2="15.757"/><line x1="30.000" y1="20.000" x2="27.000" y2="14.804"/><line x1="30.000" y1="20.000" x2="28.447" y2="14.204"/><line x1="30.000" y1="20.000" x2="30.000" y2="14.000"/><line x1="30.000" y1="20.000" x2="31.553" y2="14.204"/><line x1="30.000" y1="20.000" x2="33.000" y2="14.804"/><line x1="30.000" y1="20.000" x2="34.243" y2="15.757"/><line x1="30.000" y1="20.000" x2="35.196" y2="17.000"/><line x1="30.000" y1="20.000" x2="35.796" y2="18.447"/>
  </g>
  <circle cx="30.0" cy="20.0" r="6.0" fill="none" stroke="#000080" stroke-width="0.9"/>
  <circle cx="30.0" cy="20.0" r="1.1" fill="#000080"/>
</svg>
